<svg width="20" height="20" viewBox="0 0 20 20" fill="none" xmlns="http://www.w3.org/2000/svg">
<g clip-path="url(#clip0_217_1844)">
<path d="M9.99965 19.5518L9.27798 19.0418C8.32798 18.3701 -0.000357012 12.3193 -0.000357012 6.79175C-0.0542402 5.24299 0.5072 3.73589 1.56124 2.59987C2.61528 1.46385 4.0762 0.791303 5.62465 0.729248C6.47936 0.737648 7.32024 0.946052 8.07996 1.33777C8.83967 1.7295 9.49711 2.29366 9.99965 2.98508C10.5022 2.29366 11.1596 1.7295 11.9193 1.33777C12.6791 0.946052 13.5199 0.737648 14.3747 0.729248C15.9231 0.791303 17.384 1.46385 18.4381 2.59987C19.4921 3.73589 20.0535 5.24299 19.9997 6.79175C19.9997 12.3193 11.6713 18.3701 10.7213 19.0418L9.99965 19.5518ZM5.62465 3.22925C4.73962 3.29196 3.91505 3.70124 3.32996 4.36823C2.74488 5.03523 2.44651 5.90609 2.49964 6.79175C2.49964 10.0551 7.38548 14.4668 9.99965 16.4676C12.6138 14.4676 17.4997 10.0551 17.4997 6.79175C17.5528 5.90609 17.2544 5.03523 16.6693 4.36823C16.0843 3.70124 15.2597 3.29196 14.3747 3.22925C13.4896 3.29196 12.6651 3.70124 12.08 4.36823C11.4949 5.03523 11.1965 5.90609 11.2497 6.79175H8.74965C8.80278 5.90609 8.50441 5.03523 7.91933 4.36823C7.33425 3.70124 6.50968 3.29196 5.62465 3.22925Z" fill="#A8A8A8"/>
</g>
<defs>
<clipPath id="clip0_217_1844">
<rect width="20" height="20" fill="white"/>
</clipPath>
</defs>
</svg>
