<svg width="20" height="20" viewBox="0 0 20 20" fill="none" xmlns="http://www.w3.org/2000/svg">
<g clip-path="url(#clip0_132_1397)">
<path d="M13.9295 16.46L13.3961 12.19C13.3206 11.5852 13.0266 11.0288 12.5696 10.6255C12.1126 10.2222 11.524 9.99977 10.9145 10H9.07781C8.46858 10.0002 7.88038 10.2228 7.42371 10.6261C6.96705 11.0293 6.67336 11.5855 6.59781 12.19L6.06364 16.46C6.03433 16.6946 6.05526 16.9327 6.12504 17.1586C6.19483 17.3845 6.31187 17.593 6.4684 17.7701C6.62493 17.9473 6.81736 18.0892 7.03292 18.1863C7.24848 18.2834 7.48223 18.3335 7.71864 18.3333H12.2753C12.5117 18.3334 12.7453 18.2832 12.9608 18.186C13.1762 18.0889 13.3686 17.947 13.525 17.7698C13.6814 17.5927 13.7984 17.3843 13.8681 17.1584C13.9379 16.9326 13.9588 16.6945 13.9295 16.46V16.46Z" stroke="#B0B0B0" stroke-width="2" stroke-linecap="round" stroke-linejoin="round"/>
<path d="M10 6.6665C11.3807 6.6665 12.5 5.54722 12.5 4.1665C12.5 2.78579 11.3807 1.6665 10 1.6665C8.61929 1.6665 7.5 2.78579 7.5 4.1665C7.5 5.54722 8.61929 6.6665 10 6.6665Z" stroke="#B0B0B0" stroke-width="2"/>
<path d="M3.33073 9.16634C4.2512 9.16634 4.9974 8.42015 4.9974 7.49968C4.9974 6.5792 4.2512 5.83301 3.33073 5.83301C2.41025 5.83301 1.66406 6.5792 1.66406 7.49968C1.66406 8.42015 2.41025 9.16634 3.33073 9.16634Z" stroke="#B0B0B0" stroke-width="2"/>
<path d="M16.6667 9.16634C17.5871 9.16634 18.3333 8.42015 18.3333 7.49968C18.3333 6.5792 17.5871 5.83301 16.6667 5.83301C15.7462 5.83301 15 6.5792 15 7.49968C15 8.42015 15.7462 9.16634 16.6667 9.16634Z" stroke="#B0B0B0" stroke-width="2"/>
<path d="M16.6655 11.6665H16.9205C17.315 11.6665 17.6968 11.8064 17.9979 12.0613C18.2989 12.3163 18.4998 12.6698 18.5647 13.059L18.8422 14.7257C18.882 14.9645 18.8693 15.2091 18.805 15.4424C18.7408 15.6758 18.6264 15.8924 18.4699 16.0771C18.3134 16.2619 18.1186 16.4103 17.8989 16.512C17.6793 16.6138 17.4401 16.6665 17.198 16.6665H14.1655M3.33218 11.6665H3.07718C2.68265 11.6665 2.3009 11.8064 1.99983 12.0613C1.69877 12.3163 1.49792 12.6698 1.43302 13.059L1.15552 14.7257C1.11569 14.9645 1.12837 15.2091 1.19266 15.4424C1.25695 15.6758 1.37131 15.8924 1.52779 16.0771C1.68427 16.2619 1.87911 16.4103 2.09876 16.512C2.31841 16.6138 2.5576 16.6665 2.79968 16.6665H5.83218L3.33218 11.6665Z" stroke="#B0B0B0" stroke-width="2" stroke-linecap="round" stroke-linejoin="round"/>
</g>
<defs>
<clipPath id="clip0_132_1397">
<rect width="20" height="20" fill="white"/>
</clipPath>
</defs>
</svg>
