<svg width="18" height="18" viewBox="0 0 18 18" fill="none" xmlns="http://www.w3.org/2000/svg">
<path d="M16.0644 6.5C15.842 6.50002 15.6219 6.54461 15.4171 6.63114C15.2123 6.71766 15.0269 6.84436 14.8719 7.00375L14.6263 7.25688L14.3781 7.00375C14.2231 6.84439 14.0377 6.71772 13.8329 6.63123C13.628 6.54474 13.408 6.50018 13.1856 6.50018C12.9633 6.50018 12.7432 6.54474 12.5384 6.63123C12.3336 6.71772 12.1482 6.84439 11.9931 7.00375C11.677 7.33018 11.5002 7.76681 11.5002 8.22125C11.5002 8.67569 11.677 9.11231 11.9931 9.43875L14.6263 12.125L17.2569 9.43875C17.573 9.11231 17.7498 8.67569 17.7498 8.22125C17.7498 7.76681 17.573 7.33018 17.2569 7.00375C17.1019 6.84436 16.9165 6.71766 16.7116 6.63114C16.5068 6.54461 16.2867 6.50002 16.0644 6.5ZM0.25 17.75H1.5V14.625C1.50099 13.7965 1.83055 13.0022 2.41639 12.4164C3.00222 11.8306 3.7965 11.501 4.625 11.5H8.375C9.2035 11.501 9.99778 11.8306 10.5836 12.4164C11.1694 13.0022 11.499 13.7965 11.5 14.625V17.75H12.75V14.625C12.7487 13.4651 12.2873 12.3531 11.4671 11.5329C10.6469 10.7127 9.53492 10.2513 8.375 10.25H4.625C3.46508 10.2513 2.35305 10.7127 1.53287 11.5329C0.712685 12.3531 0.251323 13.4651 0.25 14.625V17.75ZM6.5 1.5C7.11807 1.5 7.72225 1.68328 8.23616 2.02666C8.75006 2.37004 9.1506 2.8581 9.38712 3.42911C9.62365 4.00013 9.68553 4.62847 9.56495 5.23466C9.44438 5.84085 9.14675 6.39767 8.70971 6.83471C8.27267 7.27175 7.71585 7.56938 7.10966 7.68995C6.50347 7.81053 5.87513 7.74865 5.30411 7.51212C4.7331 7.2756 4.24504 6.87506 3.90166 6.36116C3.55828 5.84725 3.375 5.24307 3.375 4.625C3.375 3.7962 3.70424 3.00134 4.29029 2.41529C4.87634 1.82924 5.6712 1.5 6.5 1.5ZM6.5 0.25C5.63471 0.25 4.78885 0.506589 4.06938 0.98732C3.34992 1.46805 2.78916 2.15133 2.45803 2.95076C2.12689 3.75019 2.04025 4.62985 2.20906 5.47852C2.37787 6.32719 2.79455 7.10674 3.40641 7.71859C4.01826 8.33045 4.79781 8.74712 5.64648 8.91594C6.49515 9.08475 7.37481 8.99811 8.17424 8.66697C8.97367 8.33584 9.65695 7.77508 10.1377 7.05562C10.6184 6.33615 10.875 5.49029 10.875 4.625C10.875 3.46468 10.4141 2.35188 9.59359 1.53141C8.77312 0.710936 7.66032 0.25 6.5 0.25Z" fill="#B0B0B0"/>
</svg>
