<svg width="20" height="20" viewBox="0 0 20 20" fill="none" xmlns="http://www.w3.org/2000/svg">
<path d="M17.0644 7.5C16.842 7.50002 16.6219 7.54461 16.4171 7.63114C16.2123 7.71766 16.0269 7.84436 15.8719 8.00375L15.6263 8.25688L15.3781 8.00375C15.2231 7.84439 15.0377 7.71772 14.8329 7.63123C14.628 7.54474 14.408 7.50018 14.1856 7.50018C13.9633 7.50018 13.7432 7.54474 13.5384 7.63123C13.3336 7.71772 13.1482 7.84439 12.9931 8.00375C12.677 8.33018 12.5002 8.76681 12.5002 9.22125C12.5002 9.67569 12.677 10.1123 12.9931 10.4387L15.6263 13.125L18.2569 10.4387C18.573 10.1123 18.7498 9.67569 18.7498 9.22125C18.7498 8.76681 18.573 8.33018 18.2569 8.00375C18.1019 7.84436 17.9165 7.71766 17.7116 7.63114C17.5068 7.54461 17.2867 7.50002 17.0644 7.5ZM1.25 18.75H2.5V15.625C2.50099 14.7965 2.83055 14.0022 3.41639 13.4164C4.00222 12.8306 4.7965 12.501 5.625 12.5H9.375C10.2035 12.501 10.9978 12.8306 11.5836 13.4164C12.1694 14.0022 12.499 14.7965 12.5 15.625V18.75H13.75V15.625C13.7487 14.4651 13.2873 13.3531 12.4671 12.5329C11.6469 11.7127 10.5349 11.2513 9.375 11.25H5.625C4.46508 11.2513 3.35305 11.7127 2.53287 12.5329C1.71268 13.3531 1.25132 14.4651 1.25 15.625V18.75ZM7.5 2.5C8.11807 2.5 8.72225 2.68328 9.23616 3.02666C9.75006 3.37004 10.1506 3.8581 10.3871 4.42911C10.6236 5.00013 10.6855 5.62847 10.565 6.23466C10.4444 6.84085 10.1467 7.39767 9.70971 7.83471C9.27267 8.27175 8.71585 8.56938 8.10966 8.68995C7.50347 8.81053 6.87513 8.74865 6.30411 8.51212C5.7331 8.2756 5.24504 7.87506 4.90166 7.36116C4.55828 6.84725 4.375 6.24307 4.375 5.625C4.375 4.7962 4.70424 4.00134 5.29029 3.41529C5.87634 2.82924 6.6712 2.5 7.5 2.5ZM7.5 1.25C6.63471 1.25 5.78885 1.50659 5.06938 1.98732C4.34992 2.46805 3.78916 3.15133 3.45803 3.95076C3.12689 4.75019 3.04025 5.62985 3.20906 6.47852C3.37787 7.32719 3.79455 8.10674 4.40641 8.71859C5.01826 9.33045 5.79781 9.74712 6.64648 9.91594C7.49515 10.0847 8.37481 9.99811 9.17424 9.66697C9.97367 9.33584 10.6569 8.77508 11.1377 8.05562C11.6184 7.33615 11.875 6.49029 11.875 5.625C11.875 4.46468 11.4141 3.35188 10.5936 2.53141C9.77312 1.71094 8.66032 1.25 7.5 1.25Z" fill="#B0B0B0"/>
</svg>
