<svg width="20" height="20" viewBox="0 0 20 20" fill="none" xmlns="http://www.w3.org/2000/svg">
<g clip-path="url(#clip0_225_439)">
<path d="M19.0833 7.46268C18.5205 7.17745 17.8444 7.2369 17.34 7.616L15.8125 8.75018C15.5959 6.62237 13.8055 5.00288 11.6667 5.00019H11.5959L8.16086 1.56601C7.6934 1.09527 7.0568 0.831438 6.39336 0.833508H0.83332C0.373086 0.833508 0 1.20663 0 1.66687C0 2.1271 0.373086 2.50019 0.83332 2.50019H6.39332C6.61422 2.50077 6.82594 2.58851 6.9825 2.74437L9.23832 5.00019H4.16668C1.86664 5.00296 0.00277344 6.86682 0 9.16686V15.8335C0.00277344 18.1335 1.86664 19.9974 4.16668 20.0002H11.6667C13.8055 19.9975 15.5959 18.378 15.8125 16.2502L17.3375 17.3869C18.0739 17.9391 19.1186 17.7899 19.6708 17.0535C19.8872 16.7651 20.0041 16.4142 20.0041 16.0535V8.95268C20.0063 8.32108 19.6492 7.74323 19.0833 7.46268ZM14.1667 15.8335C14.1667 17.2142 13.0474 18.3335 11.6667 18.3335H4.16668C2.78598 18.3335 1.66668 17.2142 1.66668 15.8335V9.16686C1.66668 7.78616 2.78598 6.66686 4.16668 6.66686H11.6667C13.0474 6.66686 14.1667 7.78616 14.1667 9.16686V15.8335ZM18.3333 16.0477L15.8333 14.1844V10.816L18.3333 8.95272V16.0477Z" fill="#5858FA"/>
</g>
<defs>
<clipPath id="clip0_225_439">
<rect width="20" height="20" fill="white"/>
</clipPath>
</defs>
</svg>
